<svg height="16" viewBox="0 0 238 16" width="238" xmlns="http://www.w3.org/2000/svg"><g fill="none" fill-rule="evenodd"><path d="M23 15l12-5.867L24.644 2z" fill="#f1a459"/><path d="M88 11.42l13 .58-5-11z" fill="#a5d5e5"/><path d="M80 8.411L70 4l.857 10z" fill="#d6b795"/><path d="M47 15l12-2.6L50.532 2z" fill="#c3a6cd"/><path d="M0 4l2.314 10L9 7.657zm112-3l.613 11L122 5.586z" fill="#efa0a8"/><path d="M202 15l12-5.867L203.646 2z" fill="#88c9a1"/><path d="M158 15l12-4.39L160.635 3z" fill="#efa0a8"/><path d="M226 15l12-2.6L229.531 2z" fill="#a5d5e5"/><path d="M180 4l2.313 10L189 7.657z" fill="#f1a459"/><path d="M131 12.215L144 15l-4.953-13z" fill="#8fcaa3"/></g></svg>