<svg xmlns="http://www.w3.org/2000/svg" width="855" height="59" viewBox="0 0 855 59"><g fill="none" fill-rule="evenodd"><path fill="#FFF" d="M855 58.085H1c-.284 0-.284-1.613 0-4.838 3.671 0 5.43-1.493 7.466-3.222C10.688 48.138 13.207 46 18.073 46c4.865 0 7.383 2.138 9.606 4.025 2.037 1.73 3.796 3.222 7.467 3.222 3.673 0 5.433-1.494 7.47-3.222C44.839 48.138 47.359 46 52.226 46c4.865 0 7.384 2.138 9.606 4.025 2.038 1.728 3.798 3.222 7.469 3.222 3.671 0 5.43-1.493 7.467-3.222C78.99 48.138 81.51 46 86.375 46c4.865 0 7.384 2.138 9.606 4.025 2.037 1.728 3.796 3.222 7.467 3.222 3.674 0 5.433-1.494 7.471-3.222 2.223-1.887 4.742-4.025 9.61-4.025 4.866 0 7.385 2.138 9.608 4.025 2.036 1.73 3.796 3.222 7.467 3.222s5.43-1.493 7.468-3.222c2.222-1.887 4.74-4.025 9.607-4.025 4.866 0 7.386 2.138 9.608 4.025 2.037 1.728 3.797 3.222 7.47 3.222 3.672 0 5.431-1.493 7.469-3.222 2.222-1.887 4.74-4.025 9.609-4.025 4.865 0 7.384 2.138 9.606 4.025 2.038 1.73 3.797 3.222 7.467 3.222 3.673 0 5.433-1.494 7.47-3.222 2.223-1.887 4.742-4.025 9.609-4.025s7.386 2.138 9.609 4.025c2.036 1.728 3.797 3.222 7.47 3.222 3.67 0 5.43-1.494 7.468-3.222 2.222-1.887 4.74-4.025 9.607-4.025 4.867 0 7.386 2.138 9.61 4.025 2.037 1.728 3.796 3.222 7.469 3.222 3.672 0 5.432-1.493 7.47-3.222 2.222-1.887 4.741-4.025 9.608-4.025 4.867 0 7.386 2.138 9.609 4.025 2.037 1.73 3.796 3.222 7.468 3.222 3.674 0 5.433-1.494 7.471-3.222 2.223-1.887 4.742-4.025 9.609-4.025s7.386 2.138 9.609 4.025c2.038 1.728 3.797 3.222 7.47 3.222 3.672 0 5.432-1.494 7.47-3.222 2.223-1.887 4.743-4.025 9.61-4.025 4.868 0 7.387 2.138 9.609 4.025 2.038 1.73 3.797 3.222 7.47 3.222 3.673 0 5.434-1.494 7.471-3.222 2.224-1.887 4.743-4.025 9.61-4.025 4.867 0 7.386 2.138 9.61 4.025 2.036 1.728 3.796 3.222 7.469 3.222 3.672 0 5.432-1.494 7.47-3.222 2.224-1.887 4.743-4.025 9.61-4.025 4.867 0 7.386 2.138 9.61 4.025 2.037 1.73 3.797 3.222 7.469 3.222 3.674 0 5.433-1.494 7.47-3.222 2.225-1.887 4.744-4.025 9.61-4.025 4.867 0 7.386 2.138 9.61 4.025 2.037 1.728 3.798 3.222 7.471 3.222 3.674 0 5.435-1.494 7.472-3.222 2.224-1.887 4.743-4.025 9.61-4.025 4.867 0 7.387 2.138 9.61 4.025 2.038 1.728 3.798 3.222 7.471 3.222s5.433-1.494 7.47-3.222c2.224-1.887 4.743-4.025 9.61-4.025 4.869 0 7.388 2.138 9.61 4.025 2.039 1.728 3.8 3.222 7.472 3.222 3.672 0 5.433-1.494 7.47-3.222 2.223-1.887 4.744-4.025 9.61-4.025 4.868 0 7.387 2.138 9.61 4.025 2.038 1.728 3.799 3.222 7.472 3.222 3.673 0 5.432-1.493 7.469-3.222 2.222-1.887 4.74-4.025 9.606-4.025 4.867 0 7.387 2.138 9.61 4.025 2.038 1.73 3.797 3.222 7.47 3.222 3.673 0 5.434-1.494 7.472-3.222 2.223-1.887 4.743-4.025 9.61-4.025 4.868 0 7.387 2.138 9.61 4.025 2.037 1.728 3.798 3.222 7.47 3.222 3.674 0 5.433-1.494 7.471-3.222 2.223-1.887 4.743-4.025 9.609-4.025 4.868 0 7.388 2.138 9.611 4.025 2.038 1.728 3.798 3.222 7.47 3.222 3.676 0 5.437-1.494 7.475-3.222 2.224-1.887 4.743-4.025 9.613-4.025 4.866 0 7.385 2.138 9.61 4.025 2.037 1.728 3.797 3.222 7.471 3.222s5.435-1.494 7.472-3.222c2.223-1.887 4.744-4.025 9.612-4.025 4.869 0 7.389 2.138 9.612 4.025 2.038 1.728 3.798 3.222 7.472 3.222 3.673 0 5.435-1.494 7.473-3.222 2.224-1.887 4.744-4.025 9.613-4.025 4.868 0 7.387 2.138 9.61 4.025 2.038 1.728 3.799 3.222 7.471 3.222 3.675 0 5.437-1.494 7.474-3.222 2.225-1.887 4.745-4.025 9.614-4.025 4.868 0 7.387 2.138 9.61 4.025 2.038 1.728 3.798 3.222 7.472 3.222 3.677 0 5.439-1.494 7.479-3.222 2.224-1.887 4.744-4.025 9.614-4.025 4.87 0 7.392 2.138 9.616 4.025 2.04 1.728 3.802 3.222 7.479 3.222v4.838z"/><path fill="#98D2E3" d="M292.247 1L292 35l24-3.359zm13.306 46.595L295.613 49l-10.266-1.388-8.29-2.684L273 38h42c-2.302 9.674-9.447 9.595-9.447 9.595"/><path fill="#98D2E3" d="M855 56c-4.87 0-7.392-1.93-9.616-3.63-2.04-1.561-3.802-2.91-7.479-2.91-3.676 0-5.437 1.349-7.478 2.91-2.224 1.7-4.744 3.63-9.615 3.63-4.868 0-7.388-1.93-9.611-3.63-2.038-1.561-3.799-2.91-7.471-2.91-3.675 0-5.437 1.349-7.474 2.91-2.225 1.7-4.745 3.63-9.614 3.63-4.868 0-7.387-1.93-9.61-3.63-2.038-1.561-3.798-2.91-7.47-2.91-3.675 0-5.437 1.349-7.475 2.91-2.224 1.7-4.744 3.63-9.612 3.63s-7.388-1.93-9.611-3.63c-2.038-1.561-3.8-2.91-7.473-2.91-3.675 0-5.435 1.349-7.472 2.91-2.224 1.7-4.745 3.63-9.612 3.63s-7.388-1.93-9.61-3.63c-2.038-1.561-3.799-2.91-7.471-2.91-3.675 0-5.436 1.349-7.475 2.91-2.224 1.7-4.743 3.63-9.612 3.63-4.867 0-7.386-1.93-9.61-3.63-2.038-1.561-3.797-2.91-7.472-2.91-3.672 0-5.432 1.348-7.47 2.91-2.223 1.7-4.742 3.63-9.61 3.63-4.867 0-7.386-1.93-9.61-3.63-2.037-1.562-3.797-2.91-7.47-2.91-3.673 0-5.433 1.349-7.471 2.91-2.223 1.7-4.743 3.63-9.611 3.63-4.867 0-7.386-1.93-9.609-3.63-2.038-1.561-3.798-2.91-7.47-2.91-3.673 0-5.431 1.348-7.468 2.91-2.223 1.7-4.742 3.63-9.608 3.63-4.866 0-7.387-1.93-9.61-3.63-2.039-1.561-3.798-2.91-7.472-2.91-3.672 0-5.433 1.349-7.47 2.91-2.223 1.7-4.742 3.63-9.61 3.63-4.868 0-7.387-1.93-9.61-3.63-2.038-1.561-3.799-2.91-7.471-2.91-3.673 0-5.433 1.349-7.47 2.91-2.224 1.7-4.743 3.63-9.61 3.63-4.869 0-7.388-1.93-9.61-3.63-2.039-1.561-3.8-2.91-7.472-2.91-3.673 0-5.433 1.349-7.47 2.91-2.225 1.7-4.745 3.63-9.612 3.63s-7.386-1.93-9.61-3.63c-2.038-1.561-3.798-2.91-7.471-2.91s-5.432 1.348-7.47 2.91c-2.223 1.7-4.742 3.63-9.61 3.63-4.867 0-7.386-1.93-9.609-3.63-2.038-1.561-3.798-2.91-7.47-2.91-3.673 0-5.434 1.349-7.471 2.91-2.223 1.7-4.742 3.63-9.61 3.63-4.866 0-7.386-1.93-9.608-3.63-2.038-1.561-3.798-2.91-7.47-2.91-3.673 0-5.433 1.349-7.47 2.91-2.225 1.7-4.744 3.63-9.611 3.63-4.867 0-7.386-1.93-9.61-3.63-2.036-1.561-3.796-2.91-7.469-2.91-3.672 0-5.433 1.349-7.47 2.91-2.224 1.7-4.744 3.63-9.61 3.63-4.867 0-7.386-1.93-9.61-3.63-2.036-1.561-3.797-2.91-7.47-2.91-3.672 0-5.43 1.349-7.469 2.91-2.223 1.7-4.743 3.63-9.61 3.63-4.866 0-7.385-1.93-9.607-3.63-2.038-1.561-3.797-2.91-7.47-2.91-3.672 0-5.433 1.349-7.47 2.91-2.223 1.7-4.742 3.63-9.608 3.63-4.866 0-7.386-1.93-9.61-3.63-2.036-1.561-3.796-2.91-7.469-2.91-3.672 0-5.432 1.348-7.468 2.91-2.223 1.7-4.741 3.63-9.608 3.63-4.867 0-7.387-1.93-9.609-3.63-2.037-1.561-3.798-2.91-7.47-2.91-3.672 0-5.431 1.349-7.469 2.91-2.223 1.7-4.742 3.63-9.609 3.63-4.865 0-7.383-1.93-9.606-3.63-2.037-1.561-3.796-2.91-7.467-2.91-3.673 0-5.433 1.349-7.471 2.91-2.222 1.7-4.741 3.63-9.608 3.63-4.867 0-7.386-1.93-9.609-3.63-2.036-1.561-3.796-2.91-7.468-2.91-3.671 0-5.43 1.348-7.469 2.91-2.221 1.7-4.74 3.63-9.606 3.63s-7.385-1.93-9.606-3.63c-2.038-1.561-3.798-2.91-7.469-2.91-3.674 0-5.433 1.349-7.47 2.91-2.224 1.7-4.743 3.63-9.61 3.63-4.866 0-7.385-1.93-9.607-3.63-2.038-1.562-3.796-2.91-7.467-2.91-3.672 0-5.431 1.348-7.468 2.91-2.222 1.7-4.74 3.63-9.606 3.63s-7.386-1.93-9.608-3.63c-2.036-1.562-3.796-2.91-7.467-2.91-3.673 0-5.433 1.349-7.47 2.91-2.223 1.7-4.743 3.63-9.61 3.63-4.865 0-7.384-1.93-9.606-3.63-2.038-1.562-3.797-2.91-7.467-2.91-3.672 0-5.431 1.348-7.468 2.91C8.385 54.07 5.865 56 1 56v-3.46c3.671 0 5.43-1.347 7.466-2.908C10.688 47.93 13.207 46 18.073 46c4.865 0 7.383 1.93 9.606 3.632 2.037 1.56 3.796 2.908 7.467 2.908 3.673 0 5.433-1.348 7.47-2.908C44.839 47.93 47.359 46 52.226 46c4.865 0 7.384 1.93 9.606 3.632 2.038 1.56 3.798 2.908 7.469 2.908 3.671 0 5.43-1.347 7.467-2.908C78.99 47.93 81.51 46 86.375 46c4.865 0 7.384 1.93 9.606 3.632 2.037 1.56 3.796 2.908 7.467 2.908 3.674 0 5.433-1.348 7.471-2.908 2.223-1.702 4.742-3.632 9.61-3.632 4.866 0 7.385 1.93 9.608 3.632 2.036 1.56 3.796 2.908 7.467 2.908s5.43-1.347 7.468-2.908c2.222-1.702 4.74-3.632 9.607-3.632 4.866 0 7.386 1.93 9.608 3.632 2.037 1.56 3.797 2.908 7.47 2.908 3.672 0 5.431-1.347 7.469-2.908 2.222-1.702 4.74-3.632 9.609-3.632 4.865 0 7.384 1.93 9.606 3.632 2.038 1.56 3.797 2.908 7.467 2.908 3.673 0 5.433-1.348 7.47-2.908C215.601 47.93 218.12 46 222.987 46s7.386 1.93 9.609 3.632c2.036 1.56 3.797 2.908 7.47 2.908 3.67 0 5.43-1.348 7.468-2.908 2.222-1.702 4.74-3.632 9.607-3.632 4.867 0 7.386 1.93 9.61 3.632 2.037 1.56 3.796 2.908 7.469 2.908 3.672 0 5.432-1.347 7.47-2.908 2.221-1.702 4.74-3.632 9.607-3.632 4.867 0 7.386 1.93 9.609 3.632 2.037 1.56 3.796 2.908 7.468 2.908 3.674 0 5.433-1.348 7.471-2.908 2.225-1.702 4.743-3.632 9.61-3.632s7.386 1.93 9.609 3.632c2.038 1.56 3.797 2.908 7.47 2.908 3.672 0 5.432-1.348 7.47-2.908 2.223-1.702 4.743-3.632 9.61-3.632 4.868 0 7.387 1.93 9.609 3.632 2.038 1.56 3.797 2.908 7.47 2.908 3.673 0 5.434-1.348 7.471-2.908 2.224-1.702 4.743-3.632 9.61-3.632 4.867 0 7.386 1.93 9.61 3.632 2.036 1.56 3.796 2.908 7.469 2.908 3.672 0 5.432-1.348 7.47-2.908 2.224-1.702 4.743-3.632 9.61-3.632 4.867 0 7.386 1.93 9.61 3.632 2.037 1.56 3.797 2.908 7.469 2.908 3.674 0 5.433-1.348 7.47-2.908 2.225-1.702 4.744-3.632 9.61-3.632 4.867 0 7.386 1.93 9.61 3.632 2.037 1.56 3.798 2.908 7.471 2.908 3.674 0 5.435-1.348 7.472-2.908 2.224-1.702 4.743-3.632 9.61-3.632 4.867 0 7.387 1.93 9.61 3.632 2.038 1.56 3.798 2.908 7.471 2.908s5.433-1.348 7.47-2.908C523.03 47.93 525.55 46 530.417 46c4.869 0 7.388 1.93 9.61 3.632 2.039 1.56 3.8 2.908 7.472 2.908 3.672 0 5.433-1.348 7.47-2.908 2.223-1.702 4.744-3.632 9.61-3.632 4.868 0 7.387 1.93 9.61 3.632 2.038 1.56 3.799 2.908 7.472 2.908 3.673 0 5.432-1.347 7.469-2.908 2.222-1.702 4.74-3.632 9.606-3.632 4.867 0 7.387 1.93 9.61 3.632 2.038 1.56 3.797 2.908 7.47 2.908 3.673 0 5.434-1.348 7.472-2.908C625.51 47.93 628.03 46 632.897 46c4.868 0 7.387 1.93 9.61 3.632 2.037 1.56 3.798 2.908 7.47 2.908 3.674 0 5.433-1.348 7.471-2.908 2.223-1.702 4.743-3.632 9.609-3.632 4.868 0 7.388 1.93 9.611 3.632 2.038 1.56 3.798 2.908 7.47 2.908 3.676 0 5.437-1.348 7.475-2.908 2.224-1.702 4.743-3.632 9.613-3.632 4.866 0 7.385 1.93 9.61 3.632 2.037 1.56 3.797 2.908 7.471 2.908s5.435-1.348 7.472-2.908c2.223-1.702 4.744-3.632 9.612-3.632 4.869 0 7.389 1.93 9.612 3.632 2.038 1.56 3.798 2.908 7.472 2.908 3.673 0 5.435-1.348 7.473-2.908C762.172 47.93 764.692 46 769.56 46s7.387 1.93 9.61 3.632c2.038 1.56 3.799 2.908 7.471 2.908 3.675 0 5.437-1.348 7.474-2.908C796.341 47.93 798.861 46 803.73 46c4.868 0 7.387 1.93 9.61 3.632 2.038 1.56 3.798 2.908 7.472 2.908 3.677 0 5.439-1.348 7.479-2.908 2.224-1.702 4.744-3.632 9.614-3.632 4.87 0 7.392 1.93 9.616 3.632 2.04 1.56 3.802 2.908 7.479 2.908V56z"/><path fill="#98D2E3" d="M803.035 37.757c1.913-2.38 2.136-7.217 1.876-12.757-.999 2.416-3.728 3.567-6.268 4.043-2.54.476-5.238.55-7.493 1.83-2.095 1.19-3.594 3.403-3.937 5.814a8.288 8.288 0 00-3.581-4.819c-2.185-1.356-4.844-1.583-7.324-2.238-2.48-.656-5.087-2.04-5.844-4.52.11 2.044-1.6 8.317.928 12.075 1.367 2.028 6.013 5.504 13.2 4.014-.427.032-4.12 3.935-5.08 11.24-.223 1.686 10.928 2.243 10.426.476-.7-2.472-.972-4.837-.769-6.147.349-2.245 1.696-4.43 3.781-5.264 1.56-.623 5.78 1.607 10.085-3.747M69.61 48.35a8.341 8.341 0 01-1.61 1l3.346 5.64c2.442.147 4.342-1.381 4.654-3.738L70.923 47a8.16 8.16 0 01-1.313 1.35m.39-2.73l-3.324-5.61c-2.454-.147-4.364 1.389-4.676 3.76L67.042 48a7.263 7.263 0 001.638-1A7.14 7.14 0 0070 45.62"/><path fill="#98D2E3" d="M65.657 53.957l-4.914-9.79-.026-.051-.03-.049c-.65-1.032-.546-2.122-.343-2.854.352-1.27 1.262-2.508 2.532-3.53l5.778-2.34c.297-.027.594-.056.889-.056 2.162 0 3.94.776 4.76 2.072.19.3.338.668.422 1.034l.012.052.015.05 4.16 12.879c.42-.188.787-.358 1.088-.499l-4.117-12.74c-.108-.478-.3-.97-.573-1.403-1.086-1.72-3.27-2.626-5.767-2.626-.227 0-.463.028-.695.044l-.38-.93.326-.132a.91.91 0 00.504-1.188l-.565-1.38a.92.92 0 00-1.196-.5l-.594.24-.522-1.849a.568.568 0 00-.762-.368l-5.762 2.331a.563.563 0 00-.284.794l.925 1.686-.594.24a.91.91 0 00-.503 1.188l.566 1.38a.92.92 0 001.195.5l.326-.132.375.914c-2.689 2.28-3.699 5.412-2.223 7.75L64.35 54c.415-.013.847-.026 1.306-.043M470.095 16.84c3.068-12.756 13.535-8.228 16.598-6.588.202.108.4-.146.26-.332-1.668-2.228-6.62-8.135-11.256-6.697-4.916 1.525-6.536 7.545-6.883 9.141-.037.168-.23.228-.348.109-1.13-1.138-5.653-5.255-10.57-3.73-4.634 1.438-5.67 9.2-5.895 12.016-.019.236.28.335.393.13 1.7-3.117 8.077-12.869 17.355-3.941a.207.207 0 00.346-.108m53.737 14.227c8.904-9.144 15.886-.08 17.775 2.835.125.193.422.079.39-.147-.379-2.709-1.85-10.151-6.618-11.28-5.057-1.197-9.41 3.033-10.493 4.198a.21.21 0 01-.358-.087c-.437-1.522-2.403-7.249-7.46-8.445-4.769-1.13-9.46 4.854-11.028 7.1-.13.19.084.423.283.308 3.009-1.756 13.356-6.718 17.152 5.433a.214.214 0 00.357.085"/></g></svg>